<svg width="25" height="25" xmlns="http://www.w3.org/2000/svg" version="1.1" xml:space="preserve">
 <desc>Created with Fabric.js 3.5.0</desc>

 <g>
  <title>Layer 1</title>
  <g transform="matrix(0.111868 0 0 0.0980942 17.4766 16.1498)" id="940575">
   <g vector-effect="non-scaling-stroke" id="svg_4">
    <g transform="matrix(1 0 0 1 -3 30.4995)" id="svg_2">
     <path d="m18.19016,-107.43018l-125.64943,0c-2.39479,0 -4.33629,2.3196 -4.33629,5.18231l0,117.08637c0,2.86271 1.9415,5.18231 4.33629,5.18231l125.64943,0c2.39479,0 4.33629,-2.3196 4.33629,-5.18231l0,-117.08637c0,-2.86202 -1.9415,-5.18231 -4.33629,-5.18231zm-4.33629,10.36531l0,98.87228l-34.68741,-44.0835c-0.81927,-1.0413 -1.96231,-1.63208 -3.15797,-1.63208c-0.00058,0 -0.00058,0 -0.00058,0c-1.19566,0 -2.33813,0.59078 -3.15797,1.6307l-14.81276,18.81317l-19.85962,-31.29494c-0.81985,-1.29212 -2.09819,-2.05081 -3.45515,-2.05081c-0.00116,0 -0.00231,0 -0.00347,0c-1.35813,0.00138 -2.63704,0.76284 -3.45573,2.05772l-34.38618,54.37212l0,-96.68465l116.97685,0l-0.00001,-0.00001zm-5.72795,106.72175l-106.72529,0l33.32755,-52.69996l19.49711,30.7242c0.77128,1.21542 1.95075,1.96237 3.22504,2.04321c1.27256,0.07601 2.51389,-0.5127 3.38809,-1.62379l15.16776,-19.26369l32.11975,40.82003l-0.00001,0z" stroke-linecap=" butt" stroke=" rgb(0,0,0)" stroke-dasharray=" none" stroke-dashoffset="0" stroke-linejoin=" miter" stroke-miterlimit="4" fill=" rgb(0,0,0)" fill-rule=" nonzero" id="svg_5"/>
    </g>
    <g transform="matrix(1 0 0 1 19.5932 3.4579)" id="svg_3">
     <path d="m-44.63511,-26.66725c7.8614,0 14.25656,-7.64287 14.25656,-17.03668c0,-9.39518 -6.39516,-17.03806 -14.25656,-17.03806c-7.86082,0 -14.2554,7.64356 -14.2554,17.03806c0,9.3938 6.39516,17.03668 14.2554,17.03668zm0,-23.7108c3.07934,0 5.58398,2.99399 5.58398,6.67343c0,3.67875 -2.50464,6.67205 -5.58398,6.67205c-3.07876,0 -5.58283,-2.9933 -5.58283,-6.67205c0,-3.67944 2.50464,-6.67343 5.58283,-6.67343z" stroke-linecap=" butt" stroke=" rgb(0,0,0)" stroke-dasharray=" none" stroke-dashoffset="0" stroke-linejoin=" miter" stroke-miterlimit="4" fill=" rgb(0,0,0)" fill-rule=" nonzero" id="svg_6"/>
    </g>
    <g transform="matrix(1 0 0 1 -5.1836 -75.5186)" id="svg_19">
     <text xml:space="preserve" font-family="'Cabin'" font-size="24" font-style="normal" font-weight="normal" stroke=" rgb(0,0,0)" stroke-width="0" stroke-dasharray=" none" stroke-linecap=" butt" stroke-dashoffset="0" stroke-linejoin=" miter" stroke-miterlimit="4" fill=" rgb(0,0,0)" fill-rule=" nonzero" id="svg_7" y="-43.70467" x="-44.63456">
      <tspan x="-71.02107" y="-35.23538" id="svg_8">Label</tspan>
     </text>
    </g>
    <g transform="matrix(1 0 0 1 -3 0.5)" id="svg_26">
     <rect x="-154.13456" y="-156.70467" width="219" height="226" stroke=" rgb(0,0,0)" stroke-width="5" stroke-dasharray=" none" stroke-linecap=" butt" stroke-dashoffset="0" stroke-linejoin=" miter" stroke-miterlimit="4" fill=" none" fill-rule=" nonzero" id="svg_9"/>
    </g>
   </g>
  </g>
  <line stroke="#000" stroke-linecap="undefined" stroke-linejoin="undefined" id="svg_1" y2="1.4375" x2="24.3125" y1="1.3125" x1="0.125" fill="none"/>
  <line stroke-linecap="undefined" stroke-linejoin="undefined" id="svg_10" y2="22.8125" x2="0.4375" y1="1.125" x1="0.5" stroke="#000" fill="none"/>
  <line stroke-linecap="undefined" stroke-linejoin="undefined" id="svg_11" y2="22.375" x2="0.5" y1="22.375" x1="24.3125" stroke="#000" fill="none"/>
  <line stroke-linecap="undefined" stroke-linejoin="undefined" id="svg_12" y2="22.3125" x2="23.875" y1="1.5625" x1="23.6875" stroke="#000" fill="none"/>
  <line stroke-linecap="undefined" stroke-linejoin="undefined" id="svg_13" y2="22.28125" x2="22.9375" y1="1.53125" x1="22.8125" stroke="#000" fill="none"/>
  <line stroke-linecap="undefined" stroke-linejoin="undefined" id="svg_14" y2="22.21875" x2="1.125" y1="1.40625" x1="1.125" stroke="#000" fill="none"/>
 </g>
</svg>